<?xml version="1.0" standalone="no"?>
<!DOCTYPE svg PUBLIC "-//W3C//DTD SVG 20010904//EN"
 "http://www.w3.org/TR/2001/REC-SVG-20010904/DTD/svg10.dtd">
<svg version="1.0" xmlns="http://www.w3.org/2000/svg"
 width="542.000000pt" height="542.000000pt" viewBox="0 0 542.000000 542.000000"
 preserveAspectRatio="xMidYMid meet">
<metadata>
Created by potrace 1.14, written by Peter Selinger 2001-2017
</metadata>
<g transform="translate(0.000000,542.000000) scale(0.100000,-0.100000)"
fill="#000000" stroke="none">
<path d="M2462 5410 c-606 -59 -1165 -310 -1611 -726 -396 -368 -688 -894
-796 -1434 -41 -203 -49 -296 -49 -540 0 -245 8 -336 49 -542 252 -1255 1371
-2168 2656 -2168 914 0 1750 450 2264 1220 162 242 317 606 380 892 50 230 59
315 59 598 0 291 -13 402 -75 655 -185 750 -690 1389 -1379 1749 -277 144
-559 234 -884 282 -123 18 -486 26 -614 14z m538 -121 c827 -93 1547 -569
1969 -1302 34 -59 69 -124 77 -145 l15 -37 -33 40 c-218 264 -403 397 -640
462 -44 13 -100 18 -188 18 -117 0 -129 -2 -182 -28 -82 -40 -146 -116 -323
-382 -143 -216 -240 -340 -349 -445 l-46 -44 0 241 0 241 68 55 c86 71 192
181 192 200 0 42 -242 348 -419 530 -164 169 -356 315 -551 420 -87 47 -301
137 -326 137 -8 0 -14 4 -14 9 0 10 145 31 290 41 117 9 331 4 460 -11z m492
-1067 c-37 -5 -58 25 -35 50 15 17 17 17 38 -15 l23 -32 -26 -3z m868 -26
c159 -42 271 -109 414 -246 226 -217 325 -381 450 -749 65 -189 67 -198 77
-342 17 -244 -12 -546 -77 -796 -236 -915 -952 -1631 -1868 -1868 -460 -118
-969 -104 -1422 39 -75 24 -89 33 -192 126 -352 316 -544 624 -623 995 -20 94
-47 390 -37 401 4 3 48 -8 100 -25 158 -50 256 -65 428 -64 183 0 305 22 470
84 190 71 345 175 496 331 217 225 349 519 371 828 l6 89 51 35 c28 19 70 48
94 66 l42 32 0 -34 c0 -25 -12 -50 -45 -94 -24 -32 -45 -69 -45 -81 0 -24 106
-155 141 -174 16 -8 26 -7 44 5 34 23 125 156 125 184 0 14 -16 47 -35 73 -34
48 -35 51 -35 147 l0 97 106 105 c158 156 242 261 403 504 159 241 233 326
296 344 50 14 192 8 265 -12z m-3749 -281 c-152 -163 -259 -364 -317 -596 -34
-139 -43 -369 -20 -509 19 -118 57 -250 96 -337 l30 -65 -36 -49 c-28 -38 -53
-57 -117 -89 -60 -31 -82 -38 -88 -28 -11 22 -29 166 -39 320 -35 516 108
1079 386 1520 l23 37 71 -71 70 -70 -59 -63z m216 -71 c36 -31 102 -83 147
-117 62 -46 80 -65 78 -81 -19 -146 -12 -174 56 -244 221 -227 830 -316 1071
-157 48 32 75 72 91 136 l12 46 86 23 c48 12 143 42 211 67 67 24 125 43 127
41 14 -14 71 -169 90 -247 177 -695 -280 -1394 -990 -1516 -215 -37 -493 -4
-681 80 -47 21 -51 26 -68 81 -33 104 -113 258 -160 307 -51 52 -183 120 -313
162 l-82 26 -31 75 c-79 187 -113 407 -93 597 30 284 143 533 331 730 25 26
47 47 48 47 2 0 33 -25 70 -56z m2326 -291 c-4 -168 -9 -263 -17 -272 -6 -8
-51 -45 -101 -84 l-90 -69 -12 81 c-14 102 -54 241 -93 327 -16 37 -30 68 -30
70 0 1 46 27 103 58 78 42 189 108 243 145 1 1 -1 -115 -3 -256z m-2571 -1249
c114 -41 202 -89 238 -131 36 -40 116 -200 126 -251 l6 -30 -88 -20 c-127 -30
-218 -36 -318 -23 -99 14 -168 38 -233 82 -50 35 -113 123 -116 163 -2 24 4
30 58 53 91 39 159 86 195 137 19 25 39 46 46 46 7 0 46 -12 86 -26z m-108
-559 c136 -26 339 -13 475 30 20 6 21 3 21 -89 0 -119 23 -302 55 -426 74
-294 198 -515 443 -787 l73 -82 -83 45 c-531 293 -949 771 -1171 1341 l-16 42
63 -30 c34 -16 98 -36 140 -44z"/>
<path d="M1397 2970 c-184 -46 -309 -263 -279 -481 21 -146 95 -264 204 -325
47 -26 63 -29 138 -29 75 0 91 3 138 29 109 61 183 177 204 322 27 191 -66
392 -215 459 -61 28 -137 38 -190 25z m167 -141 c45 -29 89 -94 112 -161 25
-77 16 -208 -20 -281 -50 -102 -144 -159 -231 -140 l-40 9 38 12 c135 39 199
213 131 351 -51 101 -151 143 -245 103 -27 -11 -49 -17 -49 -13 0 13 49 82 73
103 63 55 165 62 231 17z"/>
</g>
</svg>
